<?xml version="1.0" encoding="UTF-8"?>
<!--Generator: Apple Native CoreSVG 341-->
<!DOCTYPE svg
PUBLIC "-//W3C//DTD SVG 1.1//EN"
       "http://www.w3.org/Graphics/SVG/1.1/DTD/svg11.dtd">
<svg version="1.1" xmlns="http://www.w3.org/2000/svg" xmlns:xlink="http://www.w3.org/1999/xlink" viewBox="0 0 325.125 396.546">
 <g>
  <rect height="396.546" opacity="0" width="325.125" x="0" y="0"/>
  <path d="M305.25 88.9607L305.25 332.336C305.25 364.711 289 381.086 257 381.086L139.509 381.086C169.86 377.675 201.136 372.316 234.875 363.711C265.75 355.586 281.375 335.961 281.375 300.836L281.375 58.8357C281.375 53.6452 280.951 48.7537 280.11 44.1994C296.823 50.6953 305.25 65.6471 305.25 88.9607Z" fill="white" fill-opacity="0.85"/>
  <path d="M19.875 328.461C19.875 354.336 36.125 368.211 63.75 366.836C118 364.586 169.625 359.711 229.75 344.586C251.875 338.836 261.375 327.086 261.375 300.836L261.375 58.8357C261.375 29.5857 244.875 14.9607 216.375 21.3357C169.625 31.0857 118 38.7107 61.125 41.3357C36 42.5857 19.875 56.7107 19.875 83.8357ZM42.125 324.711L42.125 83.5857C42.125 69.5857 50.625 63.5857 63.5 63.0857C118.5 60.8357 169.125 53.2107 215.25 43.5857C230.125 40.4607 239.25 47.9607 239.25 62.5857L239.25 299.961C239.25 314.836 233.5 321.586 220.625 324.711C169.125 337.586 118.5 342.586 64.625 344.586C50.625 345.086 42.125 337.836 42.125 324.711Z" fill="white" fill-opacity="0.85"/>
  <path d="M79.5 120.836C125.125 118.586 162.625 112.711 202 104.461C208.25 103.086 210.125 99.8357 210.125 95.8357C210.125 91.3357 206.625 87.4607 200.5 88.7107C162.625 96.7107 125.125 102.586 79.5 104.961C74 105.336 71.25 108.836 71.25 113.086C71.25 117.586 74.75 121.086 79.5 120.836ZM79.5 173.961C125.125 171.586 162.625 165.711 202 157.461C208.25 156.086 210.125 152.836 210.125 148.836C210.125 144.461 206.625 140.461 200.5 141.836C162.625 149.836 125.125 155.711 79.5 157.961C74 158.336 71.25 161.836 71.25 166.086C71.25 170.711 74.75 174.211 79.5 173.961ZM79.5 226.961C125.125 224.711 162.625 218.836 202 210.586C208.25 209.086 210.125 205.961 210.125 201.961C210.125 197.461 206.625 193.586 200.5 194.836C162.625 202.836 125.125 208.711 79.5 210.961C74 211.461 71.25 214.836 71.25 219.211C71.25 223.711 74.75 227.211 79.5 226.961ZM79.5 279.961C105.125 278.711 122.875 276.336 141.375 273.711C146.125 272.961 148.75 269.211 148.75 265.461C148.75 261.211 145.375 257.086 139.125 258.211C122.125 260.461 104.75 262.836 79.5 263.961C74 264.336 71.25 267.836 71.25 272.086C71.25 276.711 74.75 280.211 79.5 279.961Z" fill="white" fill-opacity="0.85"/>
 </g>
</svg>
